<?xml version="1.0" encoding="utf-8"?>
<!-- Uploaded to: SVG Repo, www.svgrepo.com, Generator: SVG Repo Mixer Tools -->
<!DOCTYPE svg PUBLIC "-//W3C//DTD SVG 1.1//EN" "http://www.w3.org/Graphics/SVG/1.1/DTD/svg11.dtd">
<svg xmlns="http://www.w3.org/2000/svg" xmlns:xlink="http://www.w3.org/1999/xlink" version="1.1" id="Layer_1"  width="512" height="512" viewBox="0 0 512 512" enable-background="new 0 0 512 512" xml:space="preserve">
<g id="nachos">
	<path fill="#FB6D51" d="M419.185,229.27c-5.844-4.922-12.875-8.328-20.484-10c-2.422-6.781-6.703-12.953-12.5-17.859   c-5.828-4.922-12.891-8.344-20.483-10c-2.422-6.781-6.703-12.968-12.5-17.859c-5.828-4.938-12.874-8.343-20.468-10   c-2.438-6.781-6.719-12.969-12.516-17.859c-5.828-4.938-12.875-8.344-20.484-10c-2.422-6.781-6.688-12.968-12.5-17.875   c-8.516-7.187-19.608-11.156-31.249-11.156c-11.656,0-22.75,3.969-31.265,11.156c-5.797,4.906-10.078,11.093-12.5,17.875   c-7.609,1.656-14.641,5.062-20.484,10c-5.797,4.891-10.062,11.078-12.5,17.859c-7.594,1.656-14.656,5.062-20.468,10   c-5.812,4.891-10.094,11.078-12.516,17.859c-7.593,1.656-14.64,5.078-20.484,10c-5.781,4.906-10.062,11.078-12.5,17.859   c-7.594,1.672-14.641,5.078-20.469,10c-9.421,7.953-14.812,19.281-14.812,31.078c0,11.805,5.391,23.116,14.812,31.054   c8.516,7.219,19.609,11.188,31.25,11.188h263.854c11.641,0,22.734-3.969,31.266-11.188c9.406-7.938,14.812-19.249,14.812-31.054   C433.997,248.551,428.591,237.223,419.185,229.27z"/>
	<g>
		<polygon fill="#FECD57" points="174.486,250.895 25.536,186.208 58.113,364.15   "/>
	</g>
	<g>
		<polygon fill="#F5BA45" points="128.971,174.193 89.347,318.308 257.312,250.816   "/>
	</g>
	<g>
		<polygon fill="#FECD57" points="227.719,166.943 137.799,301.026 332.968,289.37   "/>
	</g>
	<g>
		<polygon fill="#F5BA45" points="293.093,183.192 174.486,289.308 363.748,325.807   "/>
	</g>
	<g>
		<polygon fill="#FECD57" points="308.437,179.411 339.437,339.869 468.621,211.849   "/>
	</g>
	<g>
		<polygon fill="#F5BA45" points="474.386,318.058 499.011,174.443 350.951,240.613   "/>
	</g>
	<g>
		<polygon fill="#ED5564" points="447.996,405.337 64.004,405.337 0.005,256.004 511.995,256.004   "/>
	</g>
	<polygon fill="#E5E8EC" points="29.223,324.182 44.066,309.339 6.942,272.215  "/>
	<polygon fill="#E5E8EC" points="44.066,309.339 86.738,351.994 129.409,309.339 86.738,266.66  "/>
	<polygon fill="#E5E8EC" points="129.409,309.339 172.064,351.994 214.735,309.339 172.064,266.66  "/>
	<polygon fill="#E5E8EC" points="214.735,309.339 257.406,351.994 300.062,309.339 257.406,266.66  "/>
	<polygon fill="#E5E8EC" points="300.062,309.339 342.733,351.994 385.403,309.339 342.733,266.66  "/>
	<polygon fill="#E5E8EC" points="385.403,309.339 428.06,351.994 470.73,309.339 428.06,266.66  "/>
	<polygon fill="#E5E8EC" points="470.73,309.339 483.62,322.213 502.933,277.121  "/>
	<polygon fill="#E5E8EC" points="54.816,383.932 64.004,405.337 118.737,405.337 129.409,394.649 86.738,351.994  "/>
	<polygon fill="#E5E8EC" points="129.409,394.649 140.065,405.337 204.063,405.337 214.735,394.649 172.064,351.994  "/>
	<polygon fill="#E5E8EC" points="214.735,394.649 225.407,405.337 289.405,405.337 300.062,394.649 257.406,351.994  "/>
	<polygon fill="#E5E8EC" points="300.062,394.649 310.733,405.337 374.731,405.337 385.403,394.649 342.733,351.994  "/>
	<polygon fill="#E5E8EC" points="458.012,381.932 428.06,351.994 385.403,394.649 396.06,405.337 447.996,405.337  "/>
	<polygon fill="#ED5564" points="54.816,383.932 86.738,351.994 44.066,309.339 29.223,324.182  "/>
	<polygon fill="#ED5564" points="86.738,351.994 129.409,394.649 172.064,351.994 129.409,309.339  "/>
	<polygon fill="#ED5564" points="172.064,351.994 214.735,394.649 257.406,351.994 214.735,309.339  "/>
	<polygon fill="#ED5564" points="257.406,351.994 300.062,394.649 342.733,351.994 300.062,309.339  "/>
	<polygon fill="#ED5564" points="342.733,351.994 385.403,394.649 428.06,351.994 385.403,309.339  "/>
	<polygon fill="#ED5564" points="483.62,322.213 470.73,309.339 428.06,351.994 458.012,381.932  "/>
	<polygon fill="#ED5564" points="3.63,264.457 6.942,272.215 44.066,309.339 86.738,266.66 76.066,256.004 12.067,256.004  "/>
	<polygon fill="#ED5564" points="86.738,266.66 129.409,309.339 172.064,266.66 161.408,256.004 97.409,256.004  "/>
	<polygon fill="#ED5564" points="172.064,266.66 214.735,309.339 257.406,266.66 246.734,256.004 182.736,256.004  "/>
	<polygon fill="#ED5564" points="257.406,266.66 300.062,309.339 342.733,266.66 332.062,256.004 268.062,256.004  "/>
	<polygon fill="#ED5564" points="342.733,266.66 385.403,309.339 428.06,266.66 417.403,256.004 353.404,256.004  "/>
	<polygon fill="#ED5564" points="502.729,256.004 438.731,256.004 428.06,266.66 470.73,309.339 502.933,277.121 509.214,262.473     "/>
	<g opacity="0.2">
		<polygon fill="#FFFFFF" points="511.292,256.004 447.278,405.337 425.966,405.337 489.948,256.004   "/>
	</g>
</g>
</svg>